# xmcd
#
# Track frame offsets:
#  150
#  23632
#  38840
#  64774
#  79752
#  98403
#  117100
#  137426
#  147565
#  165512
#
# Disc length: 2519 seconds
#
# Revision: 0
# Processed by: cddbd v1.5.2PL0 Copyright (c) Steve Scherf et al.
# Submitted via: AltoMP3_Maker 3.0
#
DISCID=7609d50a
DTITLE=Jason Lowe - Self Titled
DYEAR=1900
DGENRE=
TTITLE0=To the wind and roam
TTITLE1=Sails of Shimmer
TTITLE2=No longer an Eden
TTITLE3=Interlude No 1
TTITLE4=When a River Parts
TTITLE5=Hell is in your Hands
TTITLE6=Sea of Sacred Song
TTITLE7=Interlude No 2
TTITLE8=Deeper into Dusk
TTITLE9=Snow on the cimmarrons
EXTD=
EXTT0=
EXTT1=
EXTT2=
EXTT3=
EXTT4=
EXTT5=
EXTT6=
EXTT7=
EXTT8=
EXTT9=
PLAYORDER=
